<?xml version="1.0" encoding="UTF-8" standalone="no"?>
<!-- Created with Inkscape (http://www.inkscape.org/) -->

<svg
   width="180.32292mm"
   height="180.32292mm"
   viewBox="0 0 180.32292 180.32292"
   version="1.1"
   id="svg1"
   inkscape:version="1.3.2 (091e20ef0f, 2023-11-25, custom)"
   sodipodi:docname="bluelabel.svg"
   xml:space="preserve"
   inkscape:export-filename="bluelabel.png"
   inkscape:export-xdpi="576.96002"
   inkscape:export-ydpi="576.96002"
   xmlns:inkscape="http://www.inkscape.org/namespaces/inkscape"
   xmlns:sodipodi="http://sodipodi.sourceforge.net/DTD/sodipodi-0.dtd"
   xmlns:xlink="http://www.w3.org/1999/xlink"
   xmlns="http://www.w3.org/2000/svg"
   xmlns:svg="http://www.w3.org/2000/svg"><sodipodi:namedview
     id="namedview1"
     pagecolor="#505050"
     bordercolor="#eeeeee"
     borderopacity="1"
     inkscape:showpageshadow="0"
     inkscape:pageopacity="0"
     inkscape:pagecheckerboard="0"
     inkscape:deskcolor="#505050"
     inkscape:document-units="mm"
     inkscape:zoom="0.69219276"
     inkscape:cx="121.35348"
     inkscape:cy="409.56799"
     inkscape:window-width="1920"
     inkscape:window-height="1042"
     inkscape:window-x="0"
     inkscape:window-y="0"
     inkscape:window-maximized="1"
     inkscape:current-layer="layer1" /><defs
     id="defs1"><linearGradient
       id="linearGradient9"
       inkscape:collect="always"><stop
         style="stop-color:#241b83;stop-opacity:1;"
         offset="0"
         id="stop10" /><stop
         style="stop-color:#202654;stop-opacity:1;"
         offset="1"
         id="stop9" /></linearGradient><linearGradient
       id="linearGradient7"
       inkscape:collect="always"><stop
         style="stop-color:#09c2d6;stop-opacity:1;"
         offset="0.53361136"
         id="stop7" /><stop
         style="stop-color:#09be5b;stop-opacity:1;"
         offset="1"
         id="stop8" /></linearGradient><linearGradient
       id="linearGradient2"
       inkscape:collect="always"><stop
         style="stop-color:#bd0082;stop-opacity:1"
         offset="0"
         id="stop3" /><stop
         style="stop-color:#5c3287;stop-opacity:1;"
         offset="1"
         id="stop2" /></linearGradient><linearGradient
       inkscape:collect="always"
       xlink:href="#linearGradient2"
       id="linearGradient3"
       x1="286.20001"
       y1="501"
       x2="143.37537"
       y2="-82.289383"
       gradientUnits="userSpaceOnUse"
       spreadMethod="pad" /><linearGradient
       inkscape:collect="always"
       xlink:href="#linearGradient2"
       id="linearGradient6"
       x1="286.20001"
       y1="501"
       x2="143.37537"
       y2="-82.289383"
       gradientUnits="userSpaceOnUse" /><linearGradient
       inkscape:collect="always"
       xlink:href="#linearGradient7"
       id="linearGradient8"
       x1="117.96194"
       y1="70.730408"
       x2="27.649042"
       y2="208.7606"
       gradientUnits="userSpaceOnUse" /><linearGradient
       inkscape:collect="always"
       xlink:href="#linearGradient9"
       id="linearGradient10"
       x1="13.462039"
       y1="229.90697"
       x2="193.78496"
       y2="49.584045"
       gradientUnits="userSpaceOnUse" /><linearGradient
       inkscape:collect="always"
       xlink:href="#linearGradient9"
       id="linearGradient12"
       x1="13.462039"
       y1="229.90697"
       x2="193.78496"
       y2="49.584045"
       gradientUnits="userSpaceOnUse" /><linearGradient
       inkscape:collect="always"
       xlink:href="#linearGradient2"
       id="linearGradient19"
       gradientUnits="userSpaceOnUse"
       x1="286.20001"
       y1="501"
       x2="143.37537"
       y2="-82.289383" /><linearGradient
       inkscape:collect="always"
       xlink:href="#linearGradient2"
       id="linearGradient20"
       gradientUnits="userSpaceOnUse"
       x1="286.20001"
       y1="501"
       x2="143.37537"
       y2="-82.289383"
       spreadMethod="pad" /><linearGradient
       inkscape:collect="always"
       xlink:href="#linearGradient2"
       id="linearGradient21"
       gradientUnits="userSpaceOnUse"
       x1="286.20001"
       y1="501"
       x2="143.37537"
       y2="-82.289383" /><linearGradient
       inkscape:collect="always"
       xlink:href="#linearGradient2"
       id="linearGradient22"
       gradientUnits="userSpaceOnUse"
       x1="286.20001"
       y1="501"
       x2="143.37537"
       y2="-82.289383"
       spreadMethod="pad" /></defs><g
     inkscape:label="Katman 1"
     inkscape:groupmode="layer"
     id="layer1"
     transform="translate(-13.462039,-49.584044)"><rect
       style="fill:url(#linearGradient12);fill-opacity:1;stroke:url(#linearGradient10);stroke-width:19.6;stroke-linecap:round;stroke-linejoin:round;stroke-dasharray:none;stroke-dashoffset:0;stroke-opacity:1"
       id="rect2"
       width="160.72292"
       height="160.72292"
       x="23.262039"
       y="59.384045" /><g
       id="g1"
       transform="matrix(0.96688314,0,0,1.0171728,5.0594436,-2.3998246)"><text
         xml:space="preserve"
         style="font-style:normal;font-variant:normal;font-weight:normal;font-stretch:normal;font-size:224.075px;line-height:0;font-family:Airstream;-inkscape-font-specification:Airstream;fill:url(#linearGradient8);fill-opacity:1;stroke:#292c6d;stroke-width:58.877;stroke-dasharray:none"
         x="26.763412"
         y="208.98468"
         id="text1"><tspan
           sodipodi:role="line"
           id="tspan1"
           style="font-style:normal;font-variant:normal;font-weight:normal;font-stretch:normal;line-height:0px;font-family:Airstream;-inkscape-font-specification:Airstream;fill:url(#linearGradient8);fill-opacity:1;stroke:none;stroke-width:58.877;stroke-dasharray:none"
           x="26.763412"
           y="208.98468">b</tspan></text><g
         id="g2"
         style="fill:url(#linearGradient6);fill-opacity:1;fill-rule:nonzero;stroke:url(#linearGradient3);stroke-width:5.53035;stroke-dasharray:none;stroke-opacity:1"
         transform="matrix(0.11896812,-0.11130631,0.11896812,0.11130631,82.113995,100.223)"><path
           d="m 121.5,64.2 c -31.7,0 -57.3,25.7 -57.3,57.3 0,31.7 25.7,57.3 57.3,57.3 31.7,0 57.3,-25.7 57.3,-57.3 0.1,-31.7 -25.6,-57.3 -57.3,-57.3 z m 0,94.3 c -20.4,0 -37,-16.6 -37,-37 0,-20.4 16.6,-37 37,-37 20.4,0 37,16.6 37,37 0,20.4 -16.5,37 -37,37 z"
           id="path1"
           style="fill:url(#linearGradient19);fill-opacity:1;fill-rule:nonzero;stroke:url(#linearGradient20);stroke-width:5.53035;stroke-dasharray:none;stroke-opacity:1" /><path
           d="M 244.5,29.8 C 234.1,18.3 219.5,12.1 203.8,12.1 L 96.5,11 C 73.6,11 51.7,19.3 36,36 19.3,51.7 11,73.6 11,96.5 l 1,107.4 c 1,14.6 6.3,29.2 17.7,40.7 L 286.2,501 501,286.2 Z m 40.7,442 L 43.3,229.9 C 36,222.6 31.8,213.2 31.8,202.8 L 30.8,96.5 C 30.8,79.8 38.1,63.1 49.6,50.6 62.1,38.1 78.8,30.8 96.5,30.8 l 106.3,1 c 10.4,0 19.8,4.2 27.1,11.5 l 241.9,241.9 z"
           id="path2"
           inkscape:label="path2"
           style="fill:url(#linearGradient21);fill-opacity:1;fill-rule:nonzero;stroke:url(#linearGradient22);stroke-width:5.53035;stroke-dasharray:none;stroke-opacity:1" /></g></g></g></svg>
