<?xml version="1.0" encoding="UTF-8" standalone="no"?>
<!-- Created with Inkscape (http://www.inkscape.org/) -->

<svg
   width="180.32292mm"
   height="180.32292mm"
   viewBox="0 0 180.32292 180.32292"
   version="1.1"
   id="svg1"
   inkscape:version="1.3.2 (091e20ef0f, 2023-11-25, custom)"
   sodipodi:docname="blueair.svg"
   xml:space="preserve"
   inkscape:export-filename="blueair.png"
   inkscape:export-xdpi="576.96002"
   inkscape:export-ydpi="576.96002"
   xmlns:inkscape="http://www.inkscape.org/namespaces/inkscape"
   xmlns:sodipodi="http://sodipodi.sourceforge.net/DTD/sodipodi-0.dtd"
   xmlns:xlink="http://www.w3.org/1999/xlink"
   xmlns="http://www.w3.org/2000/svg"
   xmlns:svg="http://www.w3.org/2000/svg"><sodipodi:namedview
     id="namedview1"
     pagecolor="#505050"
     bordercolor="#eeeeee"
     borderopacity="1"
     inkscape:showpageshadow="0"
     inkscape:pageopacity="0"
     inkscape:pagecheckerboard="0"
     inkscape:deskcolor="#505050"
     inkscape:document-units="mm"
     inkscape:zoom="0.69219276"
     inkscape:cx="121.35348"
     inkscape:cy="409.56799"
     inkscape:window-width="1920"
     inkscape:window-height="1042"
     inkscape:window-x="0"
     inkscape:window-y="0"
     inkscape:window-maximized="1"
     inkscape:current-layer="g1" /><defs
     id="defs1"><linearGradient
       id="linearGradient1"
       inkscape:collect="always"><stop
         style="stop-color:#087eff;stop-opacity:1;"
         offset="0"
         id="stop1" /><stop
         style="stop-color:#ec6e00;stop-opacity:1;"
         offset="1"
         id="stop2" /></linearGradient><linearGradient
       id="linearGradient9"
       inkscape:collect="always"><stop
         style="stop-color:#241b83;stop-opacity:1;"
         offset="0"
         id="stop10" /><stop
         style="stop-color:#202654;stop-opacity:1;"
         offset="1"
         id="stop9" /></linearGradient><linearGradient
       id="linearGradient7"
       inkscape:collect="always"><stop
         style="stop-color:#09c2d6;stop-opacity:1;"
         offset="0.53361136"
         id="stop7" /><stop
         style="stop-color:#09be5b;stop-opacity:1;"
         offset="1"
         id="stop8" /></linearGradient><linearGradient
       inkscape:collect="always"
       xlink:href="#linearGradient7"
       id="linearGradient8"
       x1="117.96194"
       y1="70.730408"
       x2="27.649042"
       y2="208.7606"
       gradientUnits="userSpaceOnUse" /><linearGradient
       inkscape:collect="always"
       xlink:href="#linearGradient9"
       id="linearGradient10"
       x1="13.462039"
       y1="229.90697"
       x2="193.78496"
       y2="49.584045"
       gradientUnits="userSpaceOnUse" /><linearGradient
       inkscape:collect="always"
       xlink:href="#linearGradient9"
       id="linearGradient12"
       x1="13.462039"
       y1="229.90697"
       x2="193.78496"
       y2="49.584045"
       gradientUnits="userSpaceOnUse" /><linearGradient
       inkscape:collect="always"
       xlink:href="#linearGradient1"
       id="linearGradient2"
       x1="10.060443"
       y1="127.96005"
       x2="245.89999"
       y2="127.96005"
       gradientUnits="userSpaceOnUse" /><linearGradient
       inkscape:collect="always"
       xlink:href="#linearGradient1"
       id="linearGradient3"
       gradientUnits="userSpaceOnUse"
       x1="10.060443"
       y1="127.96005"
       x2="245.89999"
       y2="127.96005" /><linearGradient
       inkscape:collect="always"
       xlink:href="#linearGradient1"
       id="linearGradient4"
       gradientUnits="userSpaceOnUse"
       x1="10.060443"
       y1="127.96005"
       x2="245.89999"
       y2="127.96005" /><linearGradient
       inkscape:collect="always"
       xlink:href="#linearGradient1"
       id="linearGradient5"
       gradientUnits="userSpaceOnUse"
       x1="10.060443"
       y1="127.96005"
       x2="245.89999"
       y2="127.96005" /><linearGradient
       inkscape:collect="always"
       xlink:href="#linearGradient1"
       id="linearGradient6"
       gradientUnits="userSpaceOnUse"
       x1="10.060443"
       y1="127.96005"
       x2="245.89999"
       y2="127.96005" /></defs><g
     inkscape:label="Katman 1"
     inkscape:groupmode="layer"
     id="layer1"
     transform="translate(-13.462039,-49.584044)"><rect
       style="fill:url(#linearGradient12);fill-opacity:1;stroke:url(#linearGradient10);stroke-width:19.6;stroke-linecap:round;stroke-linejoin:round;stroke-dasharray:none;stroke-dashoffset:0;stroke-opacity:1"
       id="rect2"
       width="160.72292"
       height="160.72292"
       x="23.262039"
       y="59.384045" /><g
       id="g1"
       transform="matrix(0.96688314,0,0,1.0171728,5.0594436,-2.3998246)"><text
         xml:space="preserve"
         style="font-style:normal;font-variant:normal;font-weight:normal;font-stretch:normal;font-size:224.075px;line-height:0;font-family:Airstream;-inkscape-font-specification:Airstream;fill:url(#linearGradient8);fill-opacity:1;stroke:#292c6d;stroke-width:58.877;stroke-dasharray:none"
         x="26.763412"
         y="208.98468"
         id="text1"><tspan
           sodipodi:role="line"
           id="tspan1"
           style="font-style:normal;font-variant:normal;font-weight:normal;font-stretch:normal;line-height:0px;font-family:Airstream;-inkscape-font-specification:Airstream;fill:url(#linearGradient8);fill-opacity:1;stroke:none;stroke-width:58.877;stroke-dasharray:none"
           x="26.763412"
           y="208.98468">b</tspan></text><g
         id="g4"
         transform="matrix(0.40963676,0,0,0.38938406,80.794233,50.402918)"
         style="fill:url(#linearGradient2)"><path
           fill="#000000"
           d="m 34.4,86.8 c -1.6,1.2 -2.1,2.4 -2.1,4.6 0,2.5 0.7,3.6 3.8,6.6 7.5,7.3 17.3,12.3 29.1,15.4 5.9,1.4 9.6,1.7 21.5,1.7 16.3,0.1 22,-0.7 54.2,-7 11.4,-2.2 24.8,-4.6 29.7,-5.4 12,-1.7 29.5,-1.7 37.4,0.1 7.7,1.7 18.1,6.7 23.4,11.1 2.3,1.9 4.8,3.8 5.7,4.3 3.5,1.8 8.8,-1.8 8.8,-6.1 0,-3.1 -3.8,-7.2 -11.1,-12.1 -12.1,-8.1 -25.7,-11.6 -44.7,-11.6 -14,0 -24.8,1.4 -53.2,7 -30.7,6 -40.8,7.3 -54.1,6.8 -5.9,-0.2 -13,-1.1 -15.7,-1.7 -7.3,-2 -15.8,-6.4 -21.5,-11.1 -5.2,-4.8 -7.8,-5.3 -11.2,-2.6 z"
           id="path1-3"
           style="fill:url(#linearGradient3)" /><path
           fill="#000000"
           d="m 20,115.9 c -2.8,3 -2.4,6.9 1.1,10 7.2,6.6 20.4,12.5 34,15.3 11.3,2.3 14.6,2.2 17.2,-0.3 2.5,-2.4 2.7,-6 0.7,-8.6 -1.2,-1.4 -3.2,-2.1 -9.7,-3 -4.5,-0.7 -10.2,-1.8 -12.7,-2.6 -5.8,-1.7 -15.1,-6.4 -19.8,-9.9 -4.5,-3.4 -8.2,-3.7 -10.8,-0.9 z"
           id="path2-6"
           style="fill:url(#linearGradient4)" /><path
           fill="#000000"
           d="m 171.7,117 c -3,0.2 -8.5,0.7 -12.4,1.2 -8.9,1.1 -36,6.3 -39,7.5 -6.4,2.5 -4.5,12.2 2.5,12.2 1.3,0 7.6,-1.1 14,-2.4 18.7,-4 28.7,-5.2 41.2,-5.2 17.3,0 28.1,3.4 39,12.4 5.8,4.8 7,5.4 9.9,4.2 2.9,-1.1 4.3,-3.1 4.4,-6.2 0,-2.1 -0.9,-3.5 -4.8,-7 -13.4,-12.1 -31.1,-17.5 -54.8,-16.7 z"
           id="path3"
           style="fill:url(#linearGradient5)" /><path
           fill="#000000"
           d="m 11.7,145 c -2.1,2.7 -2.2,6.1 -0.2,8.3 2.7,2.9 19.8,9.5 33.8,13 26.6,6.7 53.1,5.9 88.1,-2.8 14.2,-3.5 16.1,-4.6 16.1,-9.3 0,-2.8 -3.2,-6.4 -5.7,-6.4 -0.9,0 -7.5,1.5 -14.7,3.2 -21.3,5.3 -29.1,6.3 -47.3,6.3 -13.4,0 -17.7,-0.3 -25.4,-1.9 C 45.8,153.2 33,149.3 24.5,145.4 17.4,142.2 14,142.1 11.7,145 Z"
           id="path4"
           style="fill:url(#linearGradient6)" /></g></g></g></svg>
