<?xml version="1.0" encoding="UTF-8" standalone="no"?>
<svg
   version="1.1"
   width="2048px"
   height="2048px"
   style="shape-rendering:geometricPrecision; text-rendering:geometricPrecision; image-rendering:optimizeQuality; fill-rule:evenodd; clip-rule:evenodd"
   id="svg5"
   sodipodi:docname="FVML.svg"
   inkscape:version="1.3.2 (091e20ef0f, 2023-11-25, custom)"
   inkscape:export-filename="Fluxion.png"
   inkscape:export-xdpi="96"
   inkscape:export-ydpi="96"
   xmlns:inkscape="http://www.inkscape.org/namespaces/inkscape"
   xmlns:sodipodi="http://sodipodi.sourceforge.net/DTD/sodipodi-0.dtd"
   xmlns:xlink="http://www.w3.org/1999/xlink"
   xmlns="http://www.w3.org/2000/svg"
   xmlns:svg="http://www.w3.org/2000/svg">
  <defs
     id="defs5">
    <linearGradient
       id="linearGradient24"
       inkscape:collect="always">
      <stop
         style="stop-color:#29a0b1;stop-opacity:1;"
         offset="0"
         id="stop23" />
      <stop
         style="stop-color:#98d7c2;stop-opacity:1;"
         offset="1"
         id="stop24" />
    </linearGradient>
    <linearGradient
       id="linearGradient22"
       inkscape:collect="always">
      <stop
         style="stop-color:#ddffe7;stop-opacity:1;"
         offset="0"
         id="stop21" />
      <stop
         style="stop-color:#29a0b1;stop-opacity:1;"
         offset="1"
         id="stop22" />
    </linearGradient>
    <linearGradient
       id="linearGradient19"
       inkscape:collect="always">
      <stop
         style="stop-color:#ddffe7;stop-opacity:1;"
         offset="0.24370423"
         id="stop18" />
      <stop
         style="stop-color:#29a0b1;stop-opacity:1;"
         offset="1"
         id="stop19" />
    </linearGradient>
    <linearGradient
       id="linearGradient15"
       inkscape:collect="always">
      <stop
         style="stop-color:#ddffe7;stop-opacity:1;"
         offset="0.34454447"
         id="stop15" />
      <stop
         style="stop-color:#29a0b1;stop-opacity:1;"
         offset="1"
         id="stop16" />
    </linearGradient>
    <linearGradient
       inkscape:collect="always"
       xlink:href="#linearGradient24"
       id="linearGradient10"
       x1="445.46797"
       y1="199.96887"
       x2="2047.5"
       y2="199.96887"
       gradientUnits="userSpaceOnUse" />
    <linearGradient
       inkscape:collect="always"
       xlink:href="#linearGradient24"
       id="linearGradient12"
       x1="445.46796"
       y1="1024"
       x2="1196.5225"
       y2="1024"
       gradientUnits="userSpaceOnUse" />
    <linearGradient
       inkscape:collect="always"
       xlink:href="#linearGradient24"
       id="linearGradient14"
       x1="-0.5"
       y1="1222.4993"
       x2="410.50024"
       y2="2047.5"
       gradientUnits="userSpaceOnUse" />
    <linearGradient
       inkscape:collect="always"
       xlink:href="#linearGradient15"
       id="linearGradient16"
       x1="-0.5"
       y1="397.40442"
       x2="398.07507"
       y2="-0.5"
       gradientUnits="userSpaceOnUse" />
    <linearGradient
       inkscape:collect="always"
       xlink:href="#linearGradient19"
       id="linearGradient18"
       x1="-0.5"
       y1="823.66138"
       x2="397.62253"
       y2="1222.4993"
       gradientUnits="userSpaceOnUse" />
    <linearGradient
       inkscape:collect="always"
       xlink:href="#linearGradient22"
       id="linearGradient21"
       x1="397.62253"
       y1="596.58582"
       x2="-0.5"
       y2="590.5"
       gradientUnits="userSpaceOnUse" />
  </defs>
  <sodipodi:namedview
     id="namedview5"
     pagecolor="#ffffff"
     bordercolor="#000000"
     borderopacity="0.25"
     inkscape:showpageshadow="2"
     inkscape:pageopacity="0.0"
     inkscape:pagecheckerboard="true"
     inkscape:deskcolor="#d1d1d1"
     inkscape:zoom="0.2917506"
     inkscape:cx="793.48594"
     inkscape:cy="1098.541"
     inkscape:window-width="1920"
     inkscape:window-height="1042"
     inkscape:window-x="0"
     inkscape:window-y="0"
     inkscape:window-maximized="1"
     inkscape:current-layer="g5" />
  <g
     id="g5"
     style="fill:#000000;fill-opacity:1">
    <path
       style="clip-rule:evenodd;opacity:0.997;fill:url(#linearGradient14);fill-opacity:1;fill-rule:evenodd;stroke-width:0.814623;image-rendering:optimizeQuality;shape-rendering:geometricPrecision;text-rendering:geometricPrecision"
       fill="#000000"
       d="m 226.5,2047.5 c -13.333,0 -26.667,0 -40,0 -83.286,-7.5983 -140.7861,-37.2418 -172.5,-88.9238 -5.58231,-10.7769 -9.24898,-21.8394 -11,-33.1804 -0.66667,-189.7925 -0.66667,-379.585 0,-569.3775 8.4259,-46.2749 42.5925,-81.3354 102.5,-105.1822 70.961,-24.344 140.961,-23.2377 210,3.318 56.684,24.8814 88.184,59.9418 94.5,105.1822 0.667,187.5826 0.667,375.1587 0,562.7414 -8.396,53.3211 -48.896,91.4787 -121.5,114.4727 -20.044,5.5345 -40.71,9.1844 -62,10.9496 z"
       id="path4"
       inkscape:label="body" />
    <path
       style="clip-rule:evenodd;opacity:0.993;fill:url(#linearGradient12);fill-opacity:1;fill-rule:evenodd;image-rendering:optimizeQuality;shape-rendering:geometricPrecision;text-rendering:geometricPrecision"
       fill="#000000"
       d="m 795.52246,825.06118 c 133.668,-0.333 267.33004,0 401.00004,1 -133.1,133.27 -267.43804,265.44002 -403.00004,396.50002 -53,0.67 -106,0.67 -159,0 -84.221,-7.67 -143.055,-50.17 -176.5,-127.5 -27.127,-82.65 -10.293,-154.81502 50.5,-216.50002 33.156,-30.07 72.156,-47.403 117,-52 56.835,-0.167 113.501,-0.667 170,-1.5 z"
       id="path5"
       inkscape:label="short" />
    <path
       style="shape-rendering:geometricPrecision;text-rendering:geometricPrecision;image-rendering:optimizeQuality;fill-rule:evenodd;clip-rule:evenodd;opacity:0.994;fill:url(#linearGradient21);fill-opacity:1"
       fill="#000000"
       d="M -0.5,631.5 C -0.5,617.833 -0.5,604.167 -0.5,590.5C 10.1013,515.063 49.7679,460.896 118.5,428C 187.923,400.642 253.59,407.642 315.5,449C 380.032,499.267 406.532,565.1 395,646.5C 382.898,706.577 350.731,752.41 298.5,784C 231.833,819.333 165.167,819.333 98.5,784C 41.498,748.848 8.49801,698.015 -0.5,631.5 Z"
       id="path3"
       inkscape:label="dot" />
    <path
       style="clip-rule:evenodd;opacity:0.997;fill:url(#linearGradient10);fill-opacity:1;fill-rule:evenodd;stroke-width:0.988919;image-rendering:optimizeQuality;shape-rendering:geometricPrecision;text-rendering:geometricPrecision"
       fill="#000000"
       d="m 2047.5,1.5 c 0,0.66667 0,1.33333 0,2 -130.1665,130.937 -259.9125,262.437 -389.2282,394.5 -343.2641,0.667 -686.52818,0.667 -1029.79226,0 C 559.91181,391.717 507.59093,358.884 471.51691,299.5 442.67295,246.05 437.78315,190.384 456.8475,132.5 480.87208,70.2665 524.06467,29.0998 586.42725,9 598.29969,5.63875 610.36087,3.30542 622.61178,2 1097.5778,1.5 1572.534,1.33333 2047.5,1.5 Z"
       id="path2"
       inkscape:label="long" />
    <path
       style="shape-rendering:geometricPrecision;text-rendering:geometricPrecision;image-rendering:optimizeQuality;fill-rule:evenodd;clip-rule:evenodd;opacity:0.994;fill:url(#linearGradient16);fill-opacity:1"
       fill="#000000"
       d="M 178.5,-0.5 C 191.833,-0.5 205.167,-0.5 218.5,-0.5C 284.952,8.12719 335.785,40.7939 371,97.5C 404.975,160.138 406.975,223.804 377,288.5C 344.334,349.125 293.834,384.958 225.5,396C 153.225,403.589 93.0585,380.422 45,326.5C 19.6151,295.178 4.44839,259.512 -0.5,219.5C -0.5,205.5 -0.5,191.5 -0.5,177.5C 10.4116,101.84 50.4116,47.6733 119.5,15C 138.59,7.14572 158.256,1.97905 178.5,-0.5 Z"
       id="path1"
       inkscape:label="dot" />
    <path
       style="clip-rule:evenodd;opacity:0.994;fill:url(#linearGradient18);fill-opacity:1;fill-rule:evenodd;image-rendering:optimizeQuality;shape-rendering:geometricPrecision;text-rendering:geometricPrecision"
       fill="#000000"
       d="m -0.5,1043.4995 c 0,-13.667 0,-27.333 0,-41 10.6013,-75.437 50.2679,-129.604 119,-162.5 69.423,-27.358 135.09,-20.358 197,21 64.532,50.267 91.032,116.1 79.5,197.5 -12.102,60.077 -44.269,105.91 -96.5,137.5 -66.667,35.333 -133.333,35.333 -200,0 -57.002,-35.152 -90.00199,-85.985 -99,-152.5 z"
       id="path9"
       inkscape:label="dot" />
    <path
       style="clip-rule:evenodd;opacity:0.997;fill:url(#linearGradient10);fill-opacity:1;fill-rule:evenodd;stroke-width:0.988919;image-rendering:optimizeQuality;shape-rendering:geometricPrecision;text-rendering:geometricPrecision"
       fill="#000000"
       d="m 2047.5,1.5 c 0,0.66667 0,1.33333 0,2 -130.1665,130.937 -259.9125,262.437 -389.2282,394.5 -343.2641,0.667 -686.52818,0.667 -1029.79226,0 C 559.91181,391.717 507.59093,358.884 471.51691,299.5 442.67295,246.05 437.78315,190.384 456.8475,132.5 480.87208,70.2665 524.06467,29.0998 586.42725,9 598.29969,5.63875 610.36087,3.30542 622.61178,2 1097.5778,1.5 1572.534,1.33333 2047.5,1.5 Z"
       id="path24"
       inkscape:label="long" />
  </g>
</svg>
