<?xml version="1.0" encoding="UTF-8" standalone="no"?>
<svg
   version="1.1"
   width="2048px"
   height="2048px"
   style="shape-rendering:geometricPrecision; text-rendering:geometricPrecision; image-rendering:optimizeQuality; fill-rule:evenodd; clip-rule:evenodd"
   id="svg5"
   sodipodi:docname="FVML.svg"
   inkscape:version="1.3.2 (091e20ef0f, 2023-11-25, custom)"
   xmlns:inkscape="http://www.inkscape.org/namespaces/inkscape"
   xmlns:sodipodi="http://sodipodi.sourceforge.net/DTD/sodipodi-0.dtd"
   xmlns="http://www.w3.org/2000/svg"
   xmlns:svg="http://www.w3.org/2000/svg">
  <defs
     id="defs5" />
  <sodipodi:namedview
     id="namedview5"
     pagecolor="#ffffff"
     bordercolor="#000000"
     borderopacity="0.25"
     inkscape:showpageshadow="2"
     inkscape:pageopacity="0.0"
     inkscape:pagecheckerboard="true"
     inkscape:deskcolor="#d1d1d1"
     inkscape:zoom="0.2917506"
     inkscape:cx="935.73072"
     inkscape:cy="1047.1272"
     inkscape:window-width="1920"
     inkscape:window-height="1042"
     inkscape:window-x="0"
     inkscape:window-y="0"
     inkscape:window-maximized="1"
     inkscape:current-layer="svg5" />
  <g
     id="g1">
    <path
       style="opacity:0.994"
       fill="#000000"
       d="M 178.5,-0.5 C 191.833,-0.5 205.167,-0.5 218.5,-0.5C 284.952,8.12719 335.785,40.7939 371,97.5C 404.975,160.138 406.975,223.804 377,288.5C 344.334,349.125 293.834,384.958 225.5,396C 153.225,403.589 93.0585,380.422 45,326.5C 19.6151,295.178 4.44839,259.512 -0.5,219.5C -0.5,205.5 -0.5,191.5 -0.5,177.5C 10.4116,101.84 50.4116,47.6733 119.5,15C 138.59,7.14572 158.256,1.97905 178.5,-0.5 Z"
       id="path1" />
  </g>
  <g
     id="g2">
    <path
       style="opacity:0.997"
       fill="#000000"
       d="M 2047.5,1.5 C 2047.5,2.16667 2047.5,2.83333 2047.5,3.5C 1914.4,134.437 1781.73,265.937 1649.5,398C 1298.5,398.667 947.5,398.667 596.5,398C 526.387,391.717 472.887,358.884 436,299.5C 406.506,246.05 401.506,190.384 421,132.5C 445.566,70.2665 489.732,29.0998 553.5,9C 565.64,5.63875 577.973,3.30542 590.5,2C 1076.17,1.5 1561.83,1.33333 2047.5,1.5 Z"
       id="path2" />
  </g>
  <g
     id="g3">
    <path
       style="opacity:0.994"
       fill="#000000"
       d="M -0.5,631.5 C -0.5,617.833 -0.5,604.167 -0.5,590.5C 10.1013,515.063 49.7679,460.896 118.5,428C 187.923,400.642 253.59,407.642 315.5,449C 380.032,499.267 406.532,565.1 395,646.5C 382.898,706.577 350.731,752.41 298.5,784C 231.833,819.333 165.167,819.333 98.5,784C 41.498,748.848 8.49801,698.015 -0.5,631.5 Z"
       id="path3" />
  </g>
  <g
     id="g4">
    <path
       style="opacity:0.997"
       fill="#000000"
       d="M 226.5,2047.5 C 213.167,2047.5 199.833,2047.5 186.5,2047.5C 103.214,2036.05 45.7139,1991.38 14,1913.5C 8.41769,1897.26 4.75102,1880.59 3,1863.5C 2.33333,1577.5 2.33333,1291.5 3,1005.5C 11.4259,935.768 45.5925,882.935 105.5,847C 176.461,810.316 246.461,811.983 315.5,852C 372.184,889.494 403.684,942.327 410,1010.5C 410.667,1293.17 410.667,1575.83 410,1858.5C 401.604,1938.85 361.104,1996.35 288.5,2031C 268.456,2039.34 247.79,2044.84 226.5,2047.5 Z"
       id="path4" />
  </g>
  <g
     id="g5">
    <path
       style="opacity:0.993"
       fill="#000000"
       d="M 780.5,856.5 C 914.168,856.167 1047.83,856.5 1181.5,857.5C 1048.4,990.77 914.062,1122.94 778.5,1254C 725.5,1254.67 672.5,1254.67 619.5,1254C 535.279,1246.33 476.445,1203.83 443,1126.5C 415.873,1043.85 432.707,971.685 493.5,910C 526.656,879.93 565.656,862.597 610.5,858C 667.335,857.833 724.001,857.333 780.5,856.5 Z"
       id="path5" />
  </g>
</svg>
