<?xml version="1.0" encoding="UTF-8" standalone="no"?>
<svg
   version="1.1"
   width="713.12488"
   height="823"
   style="clip-rule:evenodd;fill-rule:evenodd;image-rendering:optimizeQuality;shape-rendering:geometricPrecision;text-rendering:geometricPrecision"
   id="svg6"
   sodipodi:docname="haltroy.svg"
   inkscape:version="1.3.2 (091e20ef0f, 2023-11-25, custom)"
   inkscape:export-filename="haltroy.png"
   inkscape:export-xdpi="96"
   inkscape:export-ydpi="96"
   xmlns:inkscape="http://www.inkscape.org/namespaces/inkscape"
   xmlns:sodipodi="http://sodipodi.sourceforge.net/DTD/sodipodi-0.dtd"
   xmlns="http://www.w3.org/2000/svg"
   xmlns:svg="http://www.w3.org/2000/svg">
  <defs
     id="defs6" />
  <sodipodi:namedview
     id="namedview6"
     pagecolor="#505050"
     bordercolor="#eeeeee"
     borderopacity="1"
     inkscape:showpageshadow="0"
     inkscape:pageopacity="0"
     inkscape:pagecheckerboard="0"
     inkscape:deskcolor="#505050"
     inkscape:zoom="0.67565217"
     inkscape:cx="338.93179"
     inkscape:cy="412.19434"
     inkscape:window-width="1920"
     inkscape:window-height="1042"
     inkscape:window-x="0"
     inkscape:window-y="0"
     inkscape:window-maximized="1"
     inkscape:current-layer="g17"
     inkscape:export-bgcolor="#ffffff00" />
  <g
     id="g17"
     style="fill:#06768d;fill-opacity:1"
     transform="translate(-236.37514,-162.5)">
    <g
       id="g19"
       style="fill:#00b2ba;fill-opacity:1">
      <g
         id="g1"
         style="fill:#00b2ba;fill-opacity:1">
        <path
           style="opacity:0.99;fill:#00b2ba;fill-opacity:1"
           fill="#00ffc8"
           d="m 236.5,162.5 c 44.938,25.138 89.605,50.804 134,77 -5.574,8.887 -9.074,18.554 -10.5,29 -0.167,25.34 -0.667,50.673 -1.5,76 -8,-4.667 -16,-9.333 -24,-14 -1.167,165.999 -1.333,331.999 -0.5,498 8.418,-5.126 16.918,-10.126 25.5,-15 1.167,33.662 1.333,67.328 0.5,101 -40.588,24.045 -81.421,47.712 -122.5,71 -1,-274.333 -1.333,-548.666 -1,-823 z"
           id="path1" />
      </g>
      <g
         id="g4"
         style="fill:#00b2ba;fill-opacity:1">
        <path
           style="opacity:0.991;fill:#00b2ba;fill-opacity:1"
           fill="#00ffc8"
           d="m 516.5,381.5 c 21.77,33.651 52.103,45.151 91,34.5 11.825,-4.564 21.825,-11.564 30,-21 1,-0.667 2,-0.667 3,0 103.363,59.343 206.363,119.177 309,179.5 -42.537,25.033 -85.204,49.866 -128,74.5 -1,0.667 -2,0.667 -3,0 -13.893,-24.906 -31.226,-47.24 -52,-67 1.894,-1.079 2.227,-2.413 1,-4 C 683.742,530.566 600.242,482.733 517,434.5 c -0.5,-17.664 -0.667,-35.33 -0.5,-53 z"
           id="path4" />
      </g>
      <g
         id="g5"
         style="fill:#00b2ba;fill-opacity:1">
        <path
           style="opacity:0.989;fill:#00b2ba;fill-opacity:1"
           fill="#00ffc8"
           d="m 608.5,670.5 c 26.56,2.096 47.726,13.763 63.5,35 4.744,7.463 7.744,15.463 9,24 -56.248,32.207 -112.415,64.54 -168.5,97 -0.833,-26.994 -1.333,-53.994 -1.5,-81 -0.457,-5.327 -1.624,-10.494 -3.5,-15.5 0.772,-1.221 1.772,-2.221 3,-3 32.893,-18.608 65.559,-37.441 98,-56.5 z"
           id="path5" />
      </g>
    </g>
    <g
       id="g18"
       style="fill:#00c388;fill-opacity:1">
      <g
         id="g2"
         style="fill:#00c388;fill-opacity:1">
        <path
           style="opacity:0.995;fill:#00c388;fill-opacity:1"
           fill="#00ffc8"
           d="m 436.5,207.5 c 31.123,1.282 50.957,16.949 59.5,47 0.912,4.295 1.579,8.628 2,13 0.333,64.667 0.667,129.333 1,194 6.626,22.918 19.126,41.752 37.5,56.5 10.745,7.806 22.745,12.472 36,14 29.948,0.355 59.615,3.355 89,9 73.126,19.793 122.626,65.293 148.5,136.5 6.085,21.929 9.752,44.262 11,67 1.927,59.997 1.927,119.997 0,180 -6.83,33.16 -27.164,51.16 -61,54 -25.308,-1.638 -43.308,-13.971 -54,-37 -4.492,-12.608 -6.325,-25.608 -5.5,-39 1.019,-32.333 2.019,-64.666 3,-97 0.318,-31.045 -2.849,-61.712 -9.5,-92 -13.665,-34.764 -39.165,-53.931 -76.5,-57.5 -36.271,0.009 -71.604,-5.657 -106,-17 -31.824,-12.164 -58.657,-31.33 -80.5,-57.5 -33.156,-38.005 -51.156,-82.338 -54,-133 0.479,-36.825 0.979,-73.658 1.5,-110.5 -0.084,-24.86 -0.584,-49.693 -1.5,-74.5 5.286,-34.212 25.12,-52.878 59.5,-56 z"
           id="path2" />
      </g>
      <g
         id="g3"
         style="fill:#00c388;fill-opacity:1">
        <path
           style="opacity:0.989;fill:#00c388;fill-opacity:1"
           fill="#00ffc8"
           d="m 573.5,283.5 c 32.997,-1.833 55.83,12.5 68.5,43 7.946,38.281 -6.22,64.448 -42.5,78.5 -43.181,7.155 -69.348,-10.679 -78.5,-53.5 -0.676,-36.812 16.824,-59.478 52.5,-68 z"
           id="path3" />
      </g>
      <g
         id="g6"
         style="fill:#00c388;fill-opacity:1">
        <path
           style="opacity:0.995;fill:#00c388;fill-opacity:1"
           fill="#00ffc7"
           d="m 430.5,693.5 c 31.725,-2.221 54.225,11.112 67.5,40 3.252,7.672 4.918,15.672 5,24 0.667,53.333 0.667,106.667 0,160 -1.29,24.755 -12.457,43.588 -33.5,56.5 -26.921,12.93 -51.421,9.43 -73.5,-10.5 -9.507,-11.349 -15.507,-24.349 -18,-39 -0.973,-61.027 -0.64,-122.027 1,-183 8.315,-25.481 25.482,-41.481 51.5,-48 z"
           id="path6" />
      </g>
    </g>
  </g>
</svg>
