<?xml version="1.0" encoding="UTF-8" standalone="no"?>
<!-- Created with Inkscape (http://www.inkscape.org/) -->

<svg
   width="210mm"
   height="297mm"
   viewBox="0 0 210 297"
   version="1.1"
   id="svg1"
   inkscape:version="1.3.2 (091e20ef0f, 2023-11-25, custom)"
   sodipodi:docname="MazzeLogo.svg"
   inkscape:export-filename="Mazze.png"
   inkscape:export-xdpi="153.40805"
   inkscape:export-ydpi="153.40805"
   xmlns:inkscape="http://www.inkscape.org/namespaces/inkscape"
   xmlns:sodipodi="http://sodipodi.sourceforge.net/DTD/sodipodi-0.dtd"
   xmlns="http://www.w3.org/2000/svg"
   xmlns:svg="http://www.w3.org/2000/svg">
  <sodipodi:namedview
     id="namedview1"
     pagecolor="#505050"
     bordercolor="#eeeeee"
     borderopacity="1"
     inkscape:showpageshadow="0"
     inkscape:pageopacity="0"
     inkscape:pagecheckerboard="0"
     inkscape:deskcolor="#505050"
     inkscape:document-units="mm"
     inkscape:zoom="1.0192238"
     inkscape:cx="441.51245"
     inkscape:cy="543.06032"
     inkscape:window-width="1920"
     inkscape:window-height="1042"
     inkscape:window-x="0"
     inkscape:window-y="0"
     inkscape:window-maximized="1"
     inkscape:current-layer="layer1" />
  <defs
     id="defs1">
    <rect
       x="87.415006"
       y="314.97153"
       width="473.15107"
       height="402.38654"
       id="rect1" />
  </defs>
  <g
     inkscape:label="Katman 1"
     inkscape:groupmode="layer"
     id="layer1"
     inkscape:export-filename="layer1.png"
     inkscape:export-xdpi="96"
     inkscape:export-ydpi="96">
    <path
       id="rect13"
       style="fill:#000000;fill-opacity:1;stroke:none;stroke-width:0;stroke-linecap:round;stroke-linejoin:round;stroke-opacity:1;paint-order:stroke fill markers"
       d="M 146.42931 63.797139 L 146.42931 72.962472 L 127.2465 72.962472 L 127.2465 65.649223 L 86.777649 65.649223 L 86.777649 72.962472 L 67.594324 72.962472 L 67.594324 67.574687 L 27.125476 67.574687 L 27.125476 229.78856 L 67.594324 229.78856 L 67.594324 92.098771 L 86.777649 92.098771 L 86.777649 227.86309 L 127.2465 227.86309 L 127.2465 92.098771 L 146.42931 92.098771 L 146.42931 226.01101 L 186.89815 226.01101 L 186.89815 63.797139 L 146.42931 63.797139 z " />
    <path
       id="rect3"
       style="display:inline;fill:#292c6d;stroke:none;stroke-width:0;stroke-linecap:round;stroke-linejoin:round;paint-order:stroke fill markers;stroke-opacity:1;fill-opacity:1"
       d="M 21.865332,60.020109 V 72.805892 229.78856 h 13.33562 31.861621 0.531751 V 105.299 h 15.722037 v 124.48956 h 14.126787 31.861102 0.53227 V 105.29797 h 15.24093 v 124.49059 h 14.48904 31.84405 V 215.72792 60.020109 H 35.200952 Z m 13.33562,12.785783 H 67.062573 V 91.986117 H 53.940894 V 215.72792 H 35.200952 Z m 48.906059,0 H 129.13424 V 91.986117 H 116.18309 V 215.72792 H 97.443148 V 92.052779 H 84.107011 Z m 62.072179,0 H 178.0744 V 215.72792 H 159.56649 V 91.986117 h -13.3873 z" />
    <rect
       style="fill:#af0171;fill-opacity:1;stroke:none;stroke-width:13.348;stroke-dasharray:none;stroke-opacity:1"
       id="rect2-5-1"
       width="14.277614"
       height="13.498835"
       x="51.755093"
       y="75.778397" />
    <rect
       style="fill:#087100;fill-opacity:1;stroke:none;stroke-width:13.348;stroke-dasharray:none;stroke-opacity:1"
       id="rect2-5-5-3"
       width="14.277614"
       height="13.498835"
       x="161.70923"
       y="199.41484" />
    <rect
       style="fill:#f94c10;fill-opacity:1;stroke:none;stroke-width:13.348;stroke-dasharray:none;stroke-opacity:1"
       id="rect2-5-7"
       width="14.277614"
       height="13.498835"
       x="148.27115"
       y="75.766106" />
    <rect
       style="fill:#292c6d;fill-opacity:1;stroke:none;stroke-width:23.4768;stroke-dasharray:none;stroke-opacity:1"
       id="rect2-6"
       width="16.841095"
       height="35.401989"
       x="67.164223"
       y="69.897125" />
    <rect
       style="fill:#292c6d;fill-opacity:1;stroke:none;stroke-width:23.4768;stroke-dasharray:none;stroke-opacity:1"
       id="rect2-6-1"
       width="16.841095"
       height="35.401989"
       x="129.33821"
       y="67.574844" />
    <rect
       style="fill:#3042ff;fill-opacity:1;stroke:none;stroke-width:13.348;stroke-dasharray:none;stroke-opacity:1"
       id="rect2"
       width="14.277614"
       height="13.498835"
       x="37.511177"
       y="200.08128" />
    <rect
       style="fill:#af0171;fill-opacity:1;stroke:none;stroke-width:13.348;stroke-dasharray:none;stroke-opacity:1"
       id="rect2-5"
       width="14.277614"
       height="13.498835"
       x="99.578621"
       y="199.97009" />
    <rect
       style="fill:#087100;fill-opacity:1;stroke:none;stroke-width:13.348;stroke-dasharray:none;stroke-opacity:1"
       id="rect2-5-5"
       width="14.277614"
       height="13.498835"
       x="85.800148"
       y="75.890434" />
    <rect
       style="fill:#f8de22;fill-opacity:1;stroke:none;stroke-width:13.348;stroke-dasharray:none;stroke-opacity:1"
       id="rect2-5-1-8"
       width="14.277614"
       height="13.498835"
       x="113.88641"
       y="75.781303" />
  </g>
</svg>
