<?xml version="1.0" encoding="UTF-8" standalone="no"?>
<svg
   version="1.1"
   width="920.11267"
   height="961.99976"
   style="clip-rule:evenodd;fill-rule:evenodd;image-rendering:optimizeQuality;shape-rendering:geometricPrecision;text-rendering:geometricPrecision"
   id="svg13"
   sodipodi:docname="Yorot.svg"
   inkscape:version="1.3.2 (091e20ef0f, 2023-11-25, custom)"
   xmlns:inkscape="http://www.inkscape.org/namespaces/inkscape"
   xmlns:sodipodi="http://sodipodi.sourceforge.net/DTD/sodipodi-0.dtd"
   xmlns="http://www.w3.org/2000/svg"
   xmlns:svg="http://www.w3.org/2000/svg">
  <defs
     id="defs13" />
  <sodipodi:namedview
     id="namedview13"
     pagecolor="#ffffff"
     bordercolor="#000000"
     borderopacity="0.25"
     inkscape:showpageshadow="2"
     inkscape:pageopacity="0.0"
     inkscape:pagecheckerboard="0"
     inkscape:deskcolor="#d1d1d1"
     inkscape:zoom="0.845"
     inkscape:cx="460.35503"
     inkscape:cy="481.06509"
     inkscape:window-width="1920"
     inkscape:window-height="1042"
     inkscape:window-x="0"
     inkscape:window-y="0"
     inkscape:window-maximized="1"
     inkscape:current-layer="svg13" />
  <g
     id="g1"
     transform="translate(-39.499975,-18.5)">
    <path
       style="opacity:0.988"
       fill="#000000"
       d="m 900.5,268.5 c -1.733,0.508 -2.066,1.341 -1,2.5 -12.781,6.075 -25.448,5.908 -38,-0.5 -4.612,-3.279 -8.612,-7.279 -12,-12 -1.787,-0.816 -3.454,-1.816 -5,-3 -10.274,-9.943 -20.274,-20.276 -30,-31 -2.915,-2.281 -5.582,-4.781 -8,-7.5 -1,-0.333 -2,-0.667 -3,-1 -1.35,-4.023 -4.35,-7.023 -9,-9 0.333,-0.333 0.667,-0.667 1,-1 -2.135,-0.759 -3.468,-2.259 -4,-4.5 -8.01,-7.344 -16.01,-14.678 -24,-22 -1.231,-1.151 -1.231,-2.317 0,-3.5 -4.129,-1.629 -7.129,-4.463 -9,-8.5 -3.885,-3.029 -6.885,-6.196 -9,-9.5 -2.135,-0.759 -3.468,-2.259 -4,-4.5 -2.896,-1.708 -5.563,-3.708 -8,-6 -4.659,-6.158 -9.826,-11.824 -15.5,-17 -0.483,-0.948 -0.649,-1.948 -0.5,-3 -2.106,-0.179 -3.772,-1.179 -5,-3 -4.482,-4.315 -7.982,-9.315 -10.5,-15 -0.784,-8.457 -0.284,-16.7901 1.5,-25 1.333,0 2.667,0 4,0 -0.079,-1.4305 0.254,-2.7638 1,-4 17.39,-19.7237 36.056,-38.057 56,-55 3.401,-1.9956 7.068,-3.1623 11,-3.5 0.837,-1.0113 1.17,-2.1779 1,-3.5 6,0 12,0 18,0 -0.219,1.175 0.114,2.175 1,3 6.403,0.8789 11.403,4.0455 15,9.5 1.4,1.4381 3.067,2.2714 5,2.5 1.667,4.3333 4.667,7.3333 9,9 -0.219,1.175 0.114,2.175 1,3 16.84,16.6694 33.173,33.1694 49,49.5 1.474,1.3161 3.141,2.3161 5,3 -0.333,0.3333 -0.667,0.6667 -1,1 3.1,3.792 6.767,6.959 11,9.5 3.688,3.393 6.355,7.393 8,12 1.175,-0.219 2.175,0.114 3,1 2.484,2.459 4.484,5.126 6,8 5.554,4.221 10.554,9.221 15,15 4.19,3.361 8.19,6.861 12,10.5 -0.333,0.333 -0.667,0.667 -1,1 2.697,2.04 5.363,4.04 8,6 -0.333,0.333 -0.667,0.667 -1,1 5.143,4.944 10.143,10.111 15,15.5 0.978,10.948 1.311,21.948 1,33 -1.052,-0.149 -2.052,0.017 -3,0.5 -4.48,5.734 -9.48,10.901 -15,15.5 -0.886,0.825 -1.219,1.825 -1,3 -1.052,-0.149 -2.052,0.017 -3,0.5 -0.986,2.328 -2.986,4.328 -6,6 -9.852,10.357 -20.185,20.857 -31,31.5 z m -114,-186 c 1.052,-0.1495 2.052,0.0172 3,0.5 36.641,36.976 72.975,74.309 109,112 -6.124,5.287 -12.124,10.787 -18,16.5 -17.732,-15.899 -34.565,-32.566 -50.5,-50 -6.465,-6.663 -13.298,-12.997 -20.5,-19 -7,-6.836 -13.5,-14.17 -19.5,-22 -6.864,-7.198 -14.03,-14.032 -21.5,-20.5 6.225,-5.6105 12.225,-11.4439 18,-17.5 z"
       id="path1" />
  </g>
  <g
     id="g2"
     transform="translate(-39.499975,-18.5)">
    <path
       style="opacity:0.996"
       fill="#000000"
       d="m 375.5,145.5 c 25.669,-0.167 51.335,0 77,0.5 -0.333,0.333 -0.667,0.667 -1,1 6.667,0.333 13.333,0.667 20,1 -1.333,0.667 -1.333,1.333 0,2 10.987,1.305 21.987,3.139 33,5.5 16.984,4.635 33.651,9.802 50,15.5 -0.333,0.333 -0.667,0.667 -1,1 7.758,3.457 15.092,6.124 22,8 -1.333,0.667 -1.333,1.333 0,2 9.419,3.701 17.752,8.034 25,13 1.667,0.333 3.333,0.667 5,1 0.709,1.875 0.709,4.042 0,6.5 -11.681,11.848 -23.514,23.514 -35.5,35 -2.816,2.632 -4.983,5.632 -6.5,9 -3.368,1.517 -6.368,3.684 -9,6.5 -1.333,0.667 -1.333,1.333 0,2 -3.588,1.419 -5.922,3.919 -7,7.5 -3.368,1.517 -6.368,3.684 -9,6.5 -1.333,0.667 -1.333,1.333 0,2 -3.588,1.419 -5.922,3.919 -7,7.5 -3.368,1.517 -6.368,3.684 -9,6.5 -9.513,10.013 -19.18,19.846 -29,29.5 -1.333,1.667 -1.333,3.333 0,5 4.879,4.03 8.879,8.196 12,12.5 0.948,0.483 1.948,0.649 3,0.5 -0.219,1.175 0.114,2.175 1,3 4.667,3.333 8.667,7.333 12,12 0.825,0.886 1.825,1.219 3,1 -0.219,1.175 0.114,2.175 1,3 4.667,3.333 8.667,7.333 12,12 0.825,0.886 1.825,1.219 3,1 -0.219,1.175 0.114,2.175 1,3 4.667,3.333 8.667,7.333 12,12 0.825,0.886 1.825,1.219 3,1 -0.219,1.175 0.114,2.175 1,3 4.667,3.333 8.667,7.333 12,12 0.825,0.886 1.825,1.219 3,1 -0.219,1.175 0.114,2.175 1,3 4.667,3.333 8.667,7.333 12,12 0.825,0.886 1.825,1.219 3,1 1.078,3.581 3.412,6.081 7,7.5 -0.333,0.333 -0.667,0.667 -1,1 0.948,0.483 1.948,0.649 3,0.5 1,3.667 3.333,6 7,7 1.078,3.581 3.412,6.081 7,7.5 -0.333,0.333 -0.667,0.667 -1,1 0.948,0.483 1.948,0.649 3,0.5 -0.219,1.175 0.114,2.175 1,3 4.879,4.03 8.879,8.196 12,12.5 0.948,0.483 1.948,0.649 3,0.5 -0.219,1.175 0.114,2.175 1,3 4.667,3.333 8.667,7.333 12,12 0.825,0.886 1.825,1.219 3,1 -0.219,1.175 0.114,2.175 1,3 4.667,3.333 8.667,7.333 12,12 5.285,1.399 8.618,-0.601 10,-6 4.333,-1.667 7.333,-4.667 9,-9 3.667,-1 6,-3.333 7,-7 4.333,-1.667 7.333,-4.667 9,-9 3.73,-1.887 7.064,-4.387 10,-7.5 -0.333,-0.333 -0.667,-0.667 -1,-1 3.588,-1.419 5.922,-3.919 7,-7.5 3.368,-1.517 6.368,-3.684 9,-6.5 1.333,-0.667 1.333,-1.333 0,-2 3.588,-1.419 5.922,-3.919 7,-7.5 3.368,-1.517 6.368,-3.684 9,-6.5 1.333,-0.667 1.333,-1.333 0,-2 3.588,-1.419 5.922,-3.919 7,-7.5 3.368,-1.517 6.368,-3.684 9,-6.5 1.333,-0.667 1.333,-1.333 0,-2 3.588,-1.419 5.922,-3.919 7,-7.5 3,-1.333 6,-2.667 9,-4 -0.06,4.121 0.94,7.954 3,11.5 -1.104,1.131 -0.771,1.965 1,2.5 2.387,7.995 4.887,15.995 7.5,24 0.72,1.612 0.554,3.112 -0.5,4.5 0.626,0.75 1.126,1.584 1.5,2.5 0.333,-0.333 0.667,-0.667 1,-1 1.64,11.797 3.64,23.464 6,35 0.333,-0.333 0.667,-0.667 1,-1 1.537,14.296 2.37,28.629 2.5,43 -1.052,-0.149 -2.052,0.017 -3,0.5 0.923,2.041 1.256,4.208 1,6.5 -1,0 -2,0 -3,0 -1.333,4.333 -2.667,8.667 -4,13 -1,0 -2,0 -3,0 -1.333,3.333 -2.667,6.667 -4,10 -3.368,1.517 -6.368,3.684 -9,6.5 -1.333,0.667 -1.333,1.333 0,2 -3.936,1.795 -7.936,3.295 -12,4.5 0,1 0,2 0,3 -1.699,-0.16 -3.366,0.006 -5,0.5 0.333,0.333 0.667,0.667 1,1 -3.98,1.209 -7.98,2.375 -12,3.5 -214.333,1.333 -428.667,1.333 -643,0 -4.0199,-1.125 -8.0199,-2.291 -12,-3.5 0.3333,-0.333 0.6667,-0.667 1,-1 -1.6341,-0.494 -3.3008,-0.66 -5,-0.5 0,-1 0,-2 0,-3 -4.064,-1.205 -8.064,-2.705 -12,-4.5 0.3333,-0.333 0.6667,-0.667 1,-1 -6.443,-4.589 -11.1097,-10.422 -14,-17.5 -1,0 -2,0 -3,0 -1.3333,-4.333 -2.6667,-8.667 -4,-13 -1,0 -2,0 -3,0 -0.2564,-2.292 0.0769,-4.459 1,-6.5 -0.948,-0.483 -1.948,-0.649 -3,-0.5 -0.1666,-14.337 1e-4,-28.671 0.5,-43 0.3333,0.333 0.6667,0.667 1,1 2.3627,-11.589 4.3627,-23.256 6,-35 0.9009,-3.476 2.2342,-6.809 4,-10 2.3108,-8.999 4.4774,-17.999 6.5,-27 1,0 2,0 3,0 0.8083,-6.199 2.4749,-12.199 5,-18 5.2141,-10.614 10.3808,-21.28 15.5,-32 4.6536,-7.812 9.487,-15.479 14.5,-23 0.9519,-1.545 1.2852,-3.212 1,-5 1.175,0.219 2.175,-0.114 3,-1 1.906,-4.242 4.239,-8.242 7,-12 7.348,-8.352 14.348,-17.018 21,-26 4.688,-4.328 8.688,-8.661 12,-13 0.886,-0.825 1.219,-1.825 1,-3 3.667,-1 6,-3.333 7,-7 1.052,0.149 2.052,-0.017 3,-0.5 47.733,-47.247 105.066,-79.247 172,-96 -0.333,-0.333 -0.667,-0.667 -1,-1 11.41,-1.803 22.744,-3.47 34,-5 1.333,-0.667 1.333,-1.333 0,-2 6.746,0.131 13.079,-0.702 19,-2.5 z m 34,51 c 4.413,0.353 8.746,1.186 13,2.5 25.369,-0.049 50.369,2.951 75,9 7.216,2.639 14.55,4.972 22,7 -21.167,21.167 -42.333,42.333 -63.5,63.5 -2.422,3.844 -5.089,7.51 -8,11 -2.802,9.007 -4.968,18.174 -6.5,27.5 1.594,8.544 3.427,17.044 5.5,25.5 3,4.333 6,8.667 9,13 51.167,49.833 101.667,100.333 151.5,151.5 -167,0.667 -334,0.667 -501,0 -8.3761,-2.908 -13.3761,-8.741 -15,-17.5 2.3946,-20.256 6.2279,-40.256 11.5,-60 4.209,-12.498 8.876,-24.832 14,-37 8.59,-17.802 17.923,-35.135 28,-52 5.736,-6.472 10.736,-13.472 15,-21 10.491,-12.49 21.657,-24.323 33.5,-35.5 46.71,-42.688 101.376,-70.022 164,-82 14.583,-1.95 29.249,-2.95 44,-3 2.879,-0.546 5.546,-1.379 8,-2.5 z"
       id="path2" />
  </g>
  <g
     id="g3"
     transform="translate(-39.499975,-18.5)">
    <path
       style="opacity:0.987"
       fill="#000000"
       d="m 689.5,145.5 c 2.747,-0.313 5.414,0.02 8,1 2.77,4.105 6.437,7.105 11,9 2.379,4.462 5.379,7.462 9,9 0.746,1.236 1.079,2.57 1,4 11.212,8.044 21.046,17.711 29.5,29 5.868,5.201 11.035,10.367 15.5,15.5 8.384,7.367 15.717,15.034 22,23 1,0.333 2,0.667 3,1 5.91,7.067 11.91,13.234 18,18.5 0.929,1.189 1.262,2.522 1,4 3.667,0.842 6.667,3.509 9,8 0.825,0.886 1.825,1.219 3,1 -0.219,1.175 0.114,2.175 1,3 4.298,3.13 8.132,6.797 11.5,11 0.498,2.982 0.665,5.982 0.5,9 -1.052,-0.149 -2.052,0.017 -3,0.5 -51.206,53.025 -104.539,105.192 -160,156.5 -8.449,6.164 -17.783,8.498 -28,7 -5.66,-2.551 -10.827,-5.884 -15.5,-10 -0.483,-0.948 -0.649,-1.948 -0.5,-3 -1.175,0.219 -2.175,-0.114 -3,-1 -7.031,-6.361 -13.364,-12.528 -19,-18.5 -3.516,-3.885 -7.349,-7.385 -11.5,-10.5 -4.936,-6.771 -10.769,-12.771 -17.5,-18 -7.144,-9.289 -15.311,-17.622 -24.5,-25 -1.438,-1.4 -2.271,-3.067 -2.5,-5 -1.175,0.219 -2.175,-0.114 -3,-1 -5.074,-5.869 -9.908,-11.203 -14.5,-16 -7.176,-9.379 -9.509,-20.045 -7,-32 4.024,-4.745 7.524,-9.745 10.5,-15 1.175,0.219 2.175,-0.114 3,-1 5,-5.333 10,-10.667 15,-16 0.825,-0.886 1.825,-1.219 3,-1 -0.149,-1.052 0.017,-2.052 0.5,-3 35.568,-36.176 71.402,-71.509 107.5,-106 0.886,-0.825 1.219,-1.825 1,-3 1.175,0.219 2.175,-0.114 3,-1 5.831,-6.329 12.164,-12.162 19,-17.5 1.982,-1.805 3.316,-3.972 4,-6.5 z m 4,74 c 21.342,22.834 43.342,45.001 66,66.5 -36.858,35.192 -73.358,70.692 -109.5,106.5 -21.376,-21.875 -42.543,-43.875 -63.5,-66 32.519,-35.019 66.519,-68.519 102,-100.5 1.499,-2.328 3.166,-4.495 5,-6.5 z"
       id="path3" />
  </g>
  <g
     id="g4"
     transform="translate(-39.499975,-18.5)">
    <path
       style="opacity:0.00400002"
       fill="#000000"
       d="m 900.5,268.5 c 1.333,0.667 1.333,0.667 0,0 z"
       id="path4" />
  </g>
  <g
     id="g5"
     transform="translate(-39.499975,-18.5)">
    <path
       style="opacity:0.129"
       fill="#000000"
       d="m 334.5,560.5 c 2.027,-0.162 4.027,0.005 6,0.5 0.88,1.356 1.214,2.856 1,4.5 -3.669,0.803 -6.336,-0.364 -8,-3.5 0.556,-0.383 0.889,-0.883 1,-1.5 z"
       id="path5" />
  </g>
  <g
     id="g6"
     transform="translate(-39.499975,-18.5)">
    <path
       style="opacity:0.012"
       fill="#000000"
       d="m 502.5,560.5 c 2.687,-0.164 5.354,0.003 8,0.5 -2.608,3.976 -6.275,5.476 -11,4.5 -0.19,-2.459 0.81,-4.126 3,-5 z"
       id="path6" />
  </g>
  <g
     id="g7"
     transform="translate(-39.499975,-18.5)">
    <path
       style="opacity:0.991"
       fill="#000000"
       d="m 493.5,567.5 c 84.657,0.806 169.324,1.306 254,1.5 32.786,11.722 46.453,34.889 41,69.5 -8.163,26.049 -25.829,39.883 -53,41.5 -214.333,0.667 -428.667,0.667 -643,0 -4.3333,-0.333 -8.6667,-0.667 -13,-1 -3.9783,-1.384 -7.9783,-2.884 -12,-4.5 -3.944,-3.296 -8.2774,-5.963 -13,-8 -2.931,-5 -6.2643,-9.834 -10,-14.5 0.3333,-0.333 0.6667,-0.667 1,-1 -0.948,-0.483 -1.948,-0.649 -3,-0.5 -0.5181,-3.387 -1.3514,-6.721 -2.5,-10 -0.6667,-11.333 -0.6667,-22.667 0,-34 1.383,-2.868 2.2163,-5.868 2.5,-9 1,0 2,0 3,0 1.9108,-5.756 5.2441,-10.589 10,-14.5 -0.3333,-0.333 -0.6667,-0.667 -1,-1 3.0155,-1.669 6.0155,-3.336 9,-5 1.3333,-0.667 1.3333,-1.333 0,-2 5.8271,-1.863 11.4938,-3.863 17,-6 137.834,-0.167 275.501,-0.667 413,-1.5 z m -398,52 c 212.334,-0.167 424.667,0 637,0.5 5.991,2.246 6.324,4.912 1,8 -213,0.667 -426,0.667 -639,0 -5.0872,-3.174 -4.7539,-6.007 1,-8.5 z"
       id="path7" />
  </g>
  <g
     id="g8"
     transform="translate(-39.499975,-18.5)">
    <path
       style="opacity:0.983"
       fill="#000000"
       d="m 103.5,684.5 c 208.334,-0.333 416.668,0 625,1 12.862,5.493 19.529,14.66 20,27.5 -1.419,16.845 -10.419,26.845 -27,30 -203.667,0.667 -407.333,0.667 -611,0 -4.6,-1.319 -9.267,-2.652 -14,-4 0.3333,-0.333 0.6667,-0.667 1,-1 -3.1305,-1.961 -6.1305,-4.127 -9,-6.5 -0.9923,-2.826 -2.4923,-5.826 -4.5,-9 -3.0382,-12.019 -0.2049,-22.186 8.5,-30.5 3.7966,-2.613 7.4633,-5.113 11,-7.5 z"
       id="path8" />
  </g>
  <g
     id="g9"
     transform="translate(-39.499975,-18.5)">
    <path
       style="opacity:0.998"
       fill="#000000"
       d="m 103.5,746.5 c 143.667,-0.167 287.334,0 431,0.5 3.973,1.986 7.973,3.986 12,6 -0.333,0.333 -0.667,0.667 -1,1 3.219,3.056 5.886,6.556 8,10.5 4.761,21.093 -3.239,34.426 -24,40 -140.332,1.167 -280.665,1.333 -421,0.5 0.333,-0.333 0.667,-0.667 1,-1 -20.2439,-3.771 -28.7439,-16.605 -25.5,-38.5 2.1923,-4.374 5.0256,-8.374 8.5,-12 3.7192,-2.595 7.3859,-4.929 11,-7 z"
       id="path9" />
  </g>
  <g
     id="g10"
     transform="translate(-39.499975,-18.5)">
    <path
       style="opacity:0.99"
       fill="#000000"
       d="m 665.5,746.5 c 20.669,-0.167 41.336,0 62,0.5 3.965,1.939 7.965,3.939 12,6 -0.333,0.333 -0.667,0.667 -1,1 8.899,7.108 12.065,16.941 9.5,29.5 -0.333,-0.333 -0.667,-0.667 -1,-1 -0.309,1.266 -0.809,2.433 -1.5,3.5 0.951,0.718 1.117,1.551 0.5,2.5 -2.374,1.878 -4.208,4.212 -5.5,7 -5.558,4.167 -11.558,7.167 -18,9 -17.333,1.333 -34.667,1.333 -52,0 -11.939,-2.747 -19.773,-9.08 -23.5,-19 -0.333,0.333 -0.667,0.667 -1,1 -1.075,-8.839 -0.408,-17.505 2,-26 2.51,-1.856 4.676,-4.023 6.5,-6.5 -0.333,-0.333 -0.667,-0.667 -1,-1 4.249,-1.954 8.249,-4.12 12,-6.5 z"
       id="path10" />
  </g>
  <g
     id="g11"
     transform="translate(-39.499975,-18.5)">
    <path
       style="opacity:0.983"
       fill="#000000"
       d="m 103.5,808.5 c 143.501,-1.333 287.167,-1.333 431,0 3.865,2.353 7.865,4.52 12,6.5 -0.333,0.333 -0.667,0.667 -1,1 1,0.333 2,0.667 3,1 -0.333,0.333 -0.667,0.667 -1,1 2.572,2.409 4.572,5.242 6,8.5 0.997,7.303 1.331,14.637 1,22 -1,0 -2,0 -3,0 0.285,1.788 -0.048,3.455 -1,5 -5.59,6.628 -12.59,10.961 -21,13 -140.333,1.333 -280.667,1.333 -421,0 -0.209,-0.586 -0.543,-1.086 -1,-1.5 -4.982,-0.665 -9.6487,-2.165 -14,-4.5 -0.7796,-2.601 -2.4463,-4.601 -5,-6 -4.808,-8.336 -6.308,-17.336 -4.5,-27 2.1131,-4.416 4.9464,-8.416 8.5,-12 4.1125,-2.817 7.779,-5.151 11,-7 z"
       id="path11" />
  </g>
  <g
     id="g12"
     transform="translate(-39.499975,-18.5)">
    <path
       style="opacity:0.981"
       fill="#000000"
       d="m 665.5,807.5 c 20.677,-0.333 41.344,0 62,1 5.367,2.741 10.033,5.408 14,8 1.977,3.954 3.977,7.954 6,12 1.333,5.333 1.333,10.667 0,16 -0.787,0.742 -1.453,1.575 -2,2.5 1.017,1.049 1.184,2.216 0.5,3.5 -2.272,3.36 -5.105,6.194 -8.5,8.5 0.333,0.333 0.667,0.667 1,1 -5.069,2.925 -10.403,5.092 -16,6.5 -17.333,1.333 -34.667,1.333 -52,0 -4.024,-1.457 -8.024,-3.124 -12,-5 -3.632,-2.795 -7.132,-5.795 -10.5,-9 -0.617,-0.949 -0.451,-1.782 0.5,-2.5 -0.525,-0.692 -1.192,-1.192 -2,-1.5 -1.354,-9.089 -1.021,-18.089 1,-27 2.867,-1.187 5.2,-3.187 7,-6 3.048,-2.522 6.382,-4.522 10,-6 0.798,-0.457 1.131,-1.124 1,-2 z"
       id="path12" />
  </g>
  <g
     id="g13"
     transform="translate(-39.499975,-18.5)">
    <path
       style="opacity:0.991"
       fill="#000000"
       d="m 79.5,869.5 c 223.001,-0.333 446.001,0 669,1 13.483,3.46 24.483,11.46 33,24 2.414,5.377 4.747,10.71 7,16 1.333,10 1.333,20 0,30 -2.798,8.065 -6.965,15.398 -12.5,22 -0.483,0.948 -0.649,1.948 -0.5,3 -4.288,2.15 -8.288,4.817 -12,8 -4.314,2.153 -8.647,4.153 -13,6 -224.333,1.333 -448.667,1.333 -673,0 -5.6312,-2.48 -11.2978,-4.98 -17,-7.5 1.3333,-0.667 1.3333,-1.333 0,-2 -2.58,-1.768 -5.2467,-3.268 -8,-4.5 -2.5605,-4.905 -5.5605,-9.572 -9,-14 -1.2276,-2.985 -2.3943,-5.985 -3.5,-9 -0.7835,-12.189 -0.6168,-24.356 0.5,-36.5 1.1296,-2.407 1.963,-4.907 2.5,-7.5 0.9138,1.154 1.7471,0.987 2.5,-0.5 -0.3333,-0.333 -0.6667,-0.667 -1,-1 9.1276,-13.739 20.7943,-22.905 35,-27.5 z m 15,51 c 213,-0.167 426,0 639,0.5 4.503,2.289 4.836,4.956 1,8 -1.333,0.333 -2.667,0.667 -4,1 -211,0.667 -422,0.667 -633,0 -7.7037,-1.518 -8.7037,-4.684 -3,-9.5 z"
       id="path13" />
  </g>
</svg>
